<?xml version="1.0" encoding="utf-8"?>
<!-- Generator: Adobe Illustrator 22.1.0, SVG Export Plug-In . SVG Version: 6.00 Build 0)  -->
<svg version="1.1" id="Layer_1" xmlns="http://www.w3.org/2000/svg" xmlns:xlink="http://www.w3.org/1999/xlink" x="0px" y="0px"
	 viewBox="0 0 1200 1000" style="enable-background:new 0 0 1200 1000;" xml:space="preserve">
<style type="text/css">
	.st0{fill:#C1272D;}
	.st1{fill:#272361;}
	.st2{fill:#191919;}
</style>
<g>
	<path class="st0" d="M591.2,657.6c-45.8,0-87.3-7-123.3-20.9c-36.2-14-69-35.6-97.4-64.3C343.3,545,322,512.2,307,474.8
		c-14.9-37.2-22.5-76.8-22.5-117.5c0-42.5,7.4-82.2,22-118c14.6-35.9,36.7-68.6,65.5-97.2c28.7-28,62.1-49.4,99.2-63.7
		c37-14.3,77.3-21.5,120-21.5c55.5,0,105.5,11.2,148.6,33.3c43.2,22.2,80,55.6,109.3,99.2l-24.3,16.3
		c-26.6-39.5-59.7-69.6-98.4-89.5c-38.9-20-84.4-30.1-135.2-30.1c-39,0-75.8,6.6-109.4,19.5c-33.4,12.9-63.4,32.2-89.2,57.3
		c-26,25.7-45.8,55.2-58.9,87.3c-13.1,32.3-19.8,68.2-19.8,106.9c0,37,6.9,72.9,20.4,106.6c13.5,33.7,32.7,63.2,57,87.8
		c25.5,25.7,54.8,45.1,87.2,57.6c32.6,12.6,70.5,19,112.8,19c85.4,0,152.3-24.6,198.8-73.3c46.7-48.8,70.4-119,70.4-208.6
		c0-7.3,0-13.1-0.1-17.4H581.9v-29.3H888l0.9,13.7c0.3,3.9,0.5,8.2,0.6,12.9c0.1,4.7,0.2,11.5,0.2,20.2
		c0,97.4-26.4,174.4-78.5,228.9C758.9,630,684.9,657.6,591.2,657.6z"/>
	<path class="st1" d="M591.2,545.4c-48.8,0-87.9-16.8-116.3-49.9c-27.8-32.4-41.9-76.9-41.9-132.2c0-54.8,14.1-99,42-131.3
		c28.4-32.9,67.5-49.6,116.3-49.6c26.2,0,50.3,5.8,71.6,17.2c21.1,11.3,40.3,28.6,56.9,51.5l-23.6,17.2
		c-14-19.2-29.9-33.7-47.1-42.9c-17-9.1-36.5-13.7-57.8-13.7c-40.4,0-71.2,12.9-94.1,39.5c-23.1,26.8-34.9,64.6-34.9,112.2
		c0,48.1,11.7,86.2,34.9,113.2c22.9,26.7,53.7,39.7,94.1,39.7c34.4,0,63.3-8.4,85.9-24.9c17.3-12.7,28.8-28.4,34.7-47.6H581.9v-29.3
		h164.8l-2.3,16.6c-4.8,34.8-21.6,63-50,83.8C666.7,535.1,632,545.4,591.2,545.4z"/>
	<g>
		<path class="st2" d="M180,810.3v-24.7h63c0.1,0.8,0.1,1.7,0.1,2.7c0,1,0,2.4,0,4.3c0,20.2-5.3,35.9-16,47.1
			c-10.7,11.2-25.7,16.7-45.1,16.7c-9.5,0-18-1.4-25.4-4.3c-7.4-2.9-14-7.2-19.9-13.1c-5.6-5.6-9.9-12.3-13-20
			c-3.1-7.7-4.6-15.7-4.6-24.1c0-8.8,1.5-16.8,4.5-24.2c3-7.4,7.5-14,13.4-19.9c5.9-5.7,12.6-10.1,20.3-13
			c7.6-2.9,15.9-4.4,24.7-4.4c11.5,0,21.7,2.3,30.6,6.8c8.9,4.6,16.3,11.3,22.4,20.3l-27.8,13.3c-3.3-4.6-7.1-7.9-11.2-10.2
			c-4.1-2.2-8.8-3.3-13.9-3.3c-9.6,0-17.1,3.2-22.6,9.6c-5.5,6.4-8.3,15.1-8.3,26.2c0,11.2,2.8,20,8.3,26.4
			c5.5,6.4,13.1,9.6,22.6,9.6c8.1,0,14.9-2,20.4-6c5.4-4,8.6-9.3,9.5-15.9H180z"/>
		<path class="st2" d="M318.6,810.3v-24.7h63c0.1,0.8,0.1,1.7,0.1,2.7c0,1,0,2.4,0,4.3c0,20.2-5.3,35.9-16,47.1
			c-10.7,11.2-25.7,16.7-45.1,16.7c-9.5,0-18-1.4-25.4-4.3c-7.4-2.9-14-7.2-19.9-13.1c-5.6-5.6-9.9-12.3-13-20
			c-3.1-7.7-4.6-15.7-4.6-24.1c0-8.8,1.5-16.8,4.5-24.2c3-7.4,7.5-14,13.4-19.9c5.9-5.7,12.6-10.1,20.3-13
			c7.6-2.9,15.9-4.4,24.7-4.4c11.5,0,21.7,2.3,30.6,6.8c8.9,4.6,16.3,11.3,22.4,20.3l-27.8,13.3c-3.3-4.6-7.1-7.9-11.2-10.2
			c-4.1-2.2-8.8-3.3-13.9-3.3c-9.6,0-17.1,3.2-22.6,9.6c-5.5,6.4-8.3,15.1-8.3,26.2c0,11.2,2.8,20,8.3,26.4
			c5.5,6.4,13.1,9.6,22.6,9.6c8.1,0,14.9-2,20.4-6c5.4-4,8.6-9.3,9.5-15.9H318.6z"/>
		<path class="st2" d="M452.8,853.6V736h72v25.8H484v20.4h38.5v25.2H484v46.2H452.8z"/>
		<path class="st2" d="M627.2,772.5v81.1H601v-13.2c-3.8,5.6-8,9.7-12.6,12.4c-4.7,2.6-10.2,3.9-16.5,3.9
			c-10.8,0-19.5-3.9-25.9-11.8c-6.5-7.9-9.7-18.5-9.7-31.8c0-13.2,3.4-23.7,10.2-31.5c6.8-7.8,15.9-11.7,27.3-11.7
			c6.1,0,11.4,1.3,15.8,3.9c4.4,2.6,8.2,6.6,11.4,12v-13.3H627.2z M602.1,812.9c0-6.3-1.7-11.3-5.1-15c-3.4-3.7-8-5.5-13.8-5.5
			c-5.8,0-10.4,1.8-13.8,5.5c-3.3,3.7-5,8.7-5,15.1c0,6.3,1.7,11.3,5.1,14.9c3.4,3.6,8,5.5,13.7,5.5c5.8,0,10.4-1.8,13.8-5.5
			C600.4,824.2,602.1,819.3,602.1,812.9z"/>
		<path class="st2" d="M648.8,853.6v-81.1H675v16.5c3.8-6.6,8.2-11.4,13.2-14.5c5-3.1,10.9-4.6,17.9-4.6c5.2,0,9.9,0.8,14,2.5
			c4.1,1.7,7.4,4.1,10,7.3c2.1,2.7,3.7,6.1,4.6,10c0.9,3.9,1.4,9.7,1.4,17.5v46.4h-28.7v-43.4c0-6.5-1.1-11.2-3.2-14.1
			c-2.1-2.9-5.5-4.4-10.2-4.4c-5.9,0-10.3,2.2-13,6.6c-2.7,4.4-4.1,11.5-4.1,21.4v34H648.8z"/>
		<path class="st2" d="M760.6,853.6v-60.9h-12.1v-20.2h12.1v-24.2h28.2v24.2h12.1v20.2h-12.1v60.9H760.6z"/>
		<path class="st2" d="M901.2,772.5v81.1H875v-13.2c-3.8,5.6-8,9.7-12.6,12.4c-4.7,2.6-10.2,3.9-16.5,3.9
			c-10.8,0-19.5-3.9-25.9-11.8c-6.5-7.9-9.7-18.5-9.7-31.8c0-13.2,3.4-23.7,10.2-31.5c6.8-7.8,15.9-11.7,27.3-11.7
			c6.1,0,11.4,1.3,15.8,3.9c4.4,2.6,8.2,6.6,11.4,12v-13.3H901.2z M876.1,812.9c0-6.3-1.7-11.3-5.1-15c-3.4-3.7-8-5.5-13.8-5.5
			c-5.8,0-10.4,1.8-13.8,5.5c-3.3,3.7-5,8.7-5,15.1c0,6.3,1.7,11.3,5.1,14.9c3.4,3.6,7.9,5.5,13.7,5.5c5.8,0,10.4-1.8,13.8-5.5
			C874.4,824.2,876.1,819.3,876.1,812.9z"/>
		<path class="st2" d="M915.3,846.8l5.9-21.8c4.2,3.6,8.8,6.4,13.8,8.4c5,2,10.1,2.9,15.1,2.9c3.6,0,6.3-0.6,8.2-1.7
			c1.9-1.2,2.8-2.8,2.8-5c0-3.6-3.8-6.3-11.3-8c-2.5-0.6-4.4-1.1-5.9-1.5c-8.6-2.4-14.8-5.4-18.7-9.3c-3.9-3.8-5.8-8.8-5.8-14.9
			c0-7.9,3-14.2,8.9-18.9c5.9-4.7,13.9-7.1,24-7.1c5.2,0,10.5,0.6,15.9,1.8c5.4,1.2,10.9,3.1,16.5,5.6l-5.9,19.7
			c-3.8-2.6-7.7-4.5-11.6-5.9c-3.9-1.3-7.8-2-11.7-2c-3.3,0-5.7,0.5-7.4,1.5c-1.7,1-2.5,2.5-2.5,4.4c0,2.9,3.7,5.3,11.2,7.3
			c1.7,0.5,3,0.8,3.9,1c9.9,2.8,16.8,6.2,20.7,10c3.9,3.8,5.8,9,5.8,15.5c0,8.3-3.2,15-9.6,20.1c-6.4,5.1-14.8,7.7-25.3,7.7
			c-7.1,0-13.7-0.8-19.8-2.5C926.3,852.6,920.6,850.2,915.3,846.8z"/>
		<path class="st2" d="M998,889.4l22.8-48.2l-32.7-68.7h31.7l11.3,29.3c1,2.5,1.8,4.8,2.4,6.9c0.6,2.1,1.1,4.1,1.4,5.9
			c0.3-1.9,0.8-3.9,1.4-6c0.6-2.1,1.4-4.3,2.4-6.8l11.5-29.3h30.6l-51,116.9H998z"/>
	</g>
	<g>
		<g>
			<path class="st2" d="M471.9,890.7v38.7h-7.3v-38.7h-11.9v-6.2h31.1v6.2H471.9z"/>
		</g>
		<g>
			<path class="st2" d="M488.8,929.3v-47.5h6.3V905c1.3-2,2.9-3.5,4.7-4.4c1.8-0.9,4-1.4,6.6-1.4c2.2,0,4,0.3,5.5,1s2.7,1.7,3.6,3
				c0.5,0.8,0.9,1.7,1.1,2.8c0.2,1.1,0.3,2.9,0.3,5.6v17.6h-6.7v-14.9c0-3.8-0.5-6.4-1.4-7.6c-0.9-1.3-2.6-1.9-4.9-1.9
				c-1.6,0-2.9,0.3-4.2,0.9c-1.2,0.6-2.2,1.4-2.9,2.4c-0.5,0.7-0.8,1.6-1,2.7c-0.2,1.1-0.3,2.8-0.3,5.2v13.2H488.8z"/>
		</g>
		<g>
			<path class="st2" d="M553.7,915.8h-23.2c0.2,2.7,1,4.8,2.4,6.4c1.5,1.5,3.4,2.3,5.8,2.3c2.1,0,3.9-0.4,5.4-1.3
				c1.4-0.9,2.7-2.3,3.7-4.4l5.6,3.1c-1.6,2.9-3.7,5.1-6.1,6.5c-2.4,1.4-5.2,2.1-8.5,2.1c-4.7,0-8.4-1.4-11.1-4.3
				c-2.8-2.8-4.1-6.6-4.1-11.4c0-4.6,1.4-8.3,4.3-11.2c2.8-2.9,6.5-4.4,11-4.4c4.7,0,8.3,1.3,10.9,4c2.6,2.7,3.9,6.4,3.9,11.2V915.8
				z M546.8,911.3c-0.3-2.1-1.1-3.7-2.4-4.8c-1.3-1.1-3.1-1.6-5.5-1.6c-2.2,0-3.9,0.5-5.3,1.6c-1.3,1.1-2.3,2.7-2.8,4.8H546.8z"/>
		</g>
		<g>
			<path class="st2" d="M565.6,943h-6.8l8-16.2l-10.7-26.5h7.4l5.3,15c0.3,0.9,0.6,1.9,0.8,2.8s0.4,1.9,0.6,2.9
				c0.3-1,0.9-2.6,1.9-4.9l0.2-0.4l7.2-15.5h7.2L565.6,943z"/>
		</g>
		<g>
			<path class="st2" d="M609.1,943v-42.7h6.6v4.7c0.8-1.8,2-3.3,3.7-4.3c1.7-1,3.7-1.5,6.1-1.5c3.9,0,7,1.4,9.4,4.3
				c2.4,2.9,3.6,6.6,3.6,11.2c0,4.9-1.2,8.7-3.5,11.5c-2.4,2.8-5.6,4.2-9.7,4.2c-2,0-3.9-0.4-5.4-1.2c-1.6-0.8-3-2.1-4.2-3.7V943
				H609.1z M615.5,914.7c0,3,0.8,5.4,2.3,7.2c1.5,1.8,3.5,2.7,5.9,2.7c2.5,0,4.5-0.8,5.8-2.5c1.4-1.7,2.1-4.1,2.1-7.1
				c0-3.1-0.7-5.5-2.2-7.2c-1.4-1.7-3.4-2.6-5.9-2.6c-2.5,0-4.5,0.8-5.9,2.5C616.2,909.4,615.5,911.7,615.5,914.7z"/>
		</g>
		<g>
			<path class="st2" d="M645.9,929.3v-47.5h6.6v47.5H645.9z"/>
		</g>
		<g>
			<path class="st2" d="M689.4,929.3h-6.7v-3.8c-1.2,1.7-2.6,2.9-4.1,3.7c-1.6,0.8-3.4,1.2-5.4,1.2c-4.1,0-7.3-1.4-9.7-4.2
				c-2.4-2.8-3.5-6.7-3.5-11.5c0-4.6,1.2-8.4,3.6-11.2c2.4-2.8,5.6-4.3,9.4-4.3c2.4,0,4.4,0.5,6.1,1.5c1.7,1,2.9,2.4,3.7,4.3v-4.7
				h6.7V929.3z M682.9,914.7c0-3-0.7-5.3-2.1-7c-1.4-1.7-3.4-2.5-5.9-2.5c-2.5,0-4.5,0.9-5.9,2.6c-1.4,1.7-2.2,4.1-2.2,7.2
				c0,3.1,0.7,5.5,2.1,7.1c1.4,1.7,3.3,2.5,5.9,2.5c2.4,0,4.3-0.9,5.8-2.7C682.2,920.1,682.9,917.7,682.9,914.7z"/>
		</g>
		<g>
			<path class="st2" d="M703.6,943h-6.8l8-16.2l-10.7-26.5h7.4l5.3,15c0.3,0.9,0.6,1.9,0.8,2.8c0.2,0.9,0.4,1.9,0.6,2.9
				c0.3-1,0.9-2.6,1.9-4.9l0.2-0.4l7.2-15.5h7.2L703.6,943z"/>
		</g>
		<g>
			<path class="st2" d="M752.1,943h-6.8l8-16.2l-10.7-26.5h7.4l5.3,15c0.3,0.9,0.6,1.9,0.8,2.8c0.2,0.9,0.4,1.9,0.6,2.9
				c0.3-1,0.9-2.6,1.9-4.9l0.2-0.4l7.2-15.5h7.2L752.1,943z"/>
		</g>
		<g>
			<path class="st2" d="M774.5,914.8c0-2.1,0.4-4.1,1.2-6c0.8-1.9,2-3.6,3.5-5c1.5-1.4,3.2-2.6,5.1-3.3c1.9-0.8,4-1.2,6.1-1.2
				c2.2,0,4.2,0.4,6.2,1.2s3.7,1.9,5.2,3.4c1.5,1.5,2.7,3.2,3.5,5.1c0.8,1.9,1.2,3.9,1.2,5.9c0,2.1-0.4,4.2-1.2,6
				c-0.8,1.9-1.9,3.5-3.4,5c-1.6,1.5-3.4,2.7-5.3,3.5c-1.9,0.8-4,1.2-6.1,1.2c-2.1,0-4.1-0.4-6.1-1.2c-1.9-0.8-3.7-1.9-5.2-3.4
				c-1.5-1.5-2.7-3.2-3.5-5.1C774.9,919,774.5,917,774.5,914.8z M799.5,914.9c0-2.7-0.9-5-2.6-6.8c-1.7-1.9-3.9-2.8-6.4-2.8
				c-2.5,0-4.6,0.9-6.4,2.8s-2.6,4.2-2.6,6.8s0.9,5,2.6,6.8s3.9,2.8,6.4,2.8c2.5,0,4.6-0.9,6.4-2.8
				C798.6,919.9,799.5,917.6,799.5,914.9z"/>
		</g>
		<g>
			<path class="st2" d="M820,900.3v16.4c0,2.8,0.6,4.8,1.7,6.1s3.1,1.8,5.7,1.8c2.6,0,4.5-0.6,5.7-1.8s1.7-3.3,1.7-6.1v-16.4h6.7
				v14.4c0,5.6-1.1,9.6-3.3,12.1s-5.8,3.8-10.7,3.8c-5,0-8.6-1.2-10.8-3.7c-2.2-2.5-3.3-6.5-3.3-12.1v-14.4H820z"/>
		</g>
		<g>
			<path class="st2" d="M897.2,931.1l-6.7-15.1c-0.5-1.2-0.9-2.2-1.3-3.1c-0.3-0.9-0.6-1.8-0.9-2.7c-0.4,1.3-0.8,2.5-1.2,3.4
				c-0.3,0.9-0.6,1.7-0.8,2.1l-6.9,15.4l-15-30.8h7.1l6.5,14c0.3,0.6,0.5,1.4,0.8,2.4c0.3,1,0.5,2.2,0.7,3.4c0-0.7,0.1-1.5,0.4-2.3
				c0.2-0.8,0.6-1.8,1.1-2.9l7.1-15.7h0.6l7.2,15.7c0.4,1,0.8,1.9,1,2.7c0.2,0.8,0.3,1.7,0.4,2.5c0.2-1.1,0.4-2.1,0.7-3.1
				c0.3-1,0.6-1.9,1-2.7l6.4-14.1h7L897.2,931.1z"/>
		</g>
		<g>
			<path class="st2" d="M915.9,887.7c0-1.1,0.4-2.1,1.2-2.9c0.8-0.8,1.8-1.2,3-1.2c1.2,0,2.2,0.4,3,1.2c0.8,0.8,1.2,1.8,1.2,3
				s-0.4,2.2-1.2,3c-0.8,0.8-1.8,1.2-2.9,1.2c-1.1,0-2.1-0.4-3-1.2C916.3,889.8,915.9,888.9,915.9,887.7z M916.8,929.3v-29h6.6v29
				H916.8z"/>
		</g>
		<g>
			<path class="st2" d="M932.9,929.3v-29h6.2v4.7c1.3-2,2.9-3.5,4.7-4.4c1.8-0.9,4-1.4,6.6-1.4c2.2,0,4,0.3,5.5,1
				c1.5,0.7,2.7,1.7,3.6,3c0.5,0.8,0.9,1.7,1.1,2.8c0.2,1.1,0.3,2.9,0.3,5.6v17.6h-6.7v-14.9c0-3.8-0.5-6.4-1.4-7.6
				c-0.9-1.3-2.6-1.9-5-1.9c-1.6,0-2.9,0.3-4.2,0.9c-1.2,0.6-2.2,1.4-2.9,2.4c-0.5,0.7-0.8,1.6-1,2.7c-0.2,1.1-0.3,2.8-0.3,5.2v13.2
				H932.9z"/>
		</g>
		<g>
			<path class="st2" d="M971.5,926.5c0-1.1,0.4-2,1.2-2.8c0.8-0.8,1.7-1.2,2.8-1.2c1.1,0,2.1,0.4,2.9,1.2c0.8,0.8,1.2,1.7,1.2,2.9
				c0,1.1-0.4,2-1.2,2.8c-0.8,0.8-1.7,1.2-2.9,1.2c-1.1,0-2.1-0.4-2.9-1.2C971.9,928.6,971.5,927.6,971.5,926.5z M972.1,883.5h7V919
				h-7V883.5z"/>
		</g>
	</g>
</g>
</svg>
